<?xml version="1.0" encoding="utf-8"?>
<!-- Generator: Adobe Illustrator 17.0.0, SVG Export Plug-In . SVG Version: 6.00 Build 0)  -->
<!DOCTYPE svg PUBLIC "-//W3C//DTD SVG 1.1//EN" "http://www.w3.org/Graphics/SVG/1.1/DTD/svg11.dtd">
<svg version="1.1" xmlns="http://www.w3.org/2000/svg" xmlns:xlink="http://www.w3.org/1999/xlink" x="0px" y="0px"
	 width="551.736px" height="551.736px" viewBox="0 0 551.736 551.736" enable-background="new 0 0 551.736 551.736"
	 xml:space="preserve">
<g id="_x31_">
</g>
<g id="_x32_">
	<g>
		<circle fill="#CBCACB" cx="275.868" cy="275.868" r="275.868"/>
		<g>
			<linearGradient id="SVGID_1_" gradientUnits="userSpaceOnUse" x1="408.2201" y1="503.5569" x2="146.1157" y2="49.5788">
				<stop  offset="0.1029" style="stop-color:#262626"/>
				<stop  offset="0.3452" style="stop-color:#434343"/>
				<stop  offset="0.4963" style="stop-color:#505050"/>
				<stop  offset="0.6411" style="stop-color:#3D3B3C"/>
				<stop  offset="0.7868" style="stop-color:#252223"/>
				<stop  offset="1" style="stop-color:#000000"/>
			</linearGradient>
			<circle fill="url(#SVGID_1_)" cx="277.168" cy="276.568" r="262.061"/>
			<path fill="#231F20" d="M277.168,541.914c-146.312,0-265.347-119.033-265.347-265.346S130.856,11.221,277.168,11.221
				c146.313,0,265.347,119.034,265.347,265.347S423.48,541.914,277.168,541.914z M277.168,17.794
				c-142.689,0-258.774,116.086-258.774,258.774s116.085,258.774,258.774,258.774c142.689,0,258.775-116.086,258.775-258.774
				S419.857,17.794,277.168,17.794z"/>
		</g>
		<circle opacity="0.5" cx="277.168" cy="276.568" r="117.664"/>
		<circle fill="#FFCC05" cx="277.168" cy="276.568" r="95.294"/>
		<path opacity="0.6" fill="#231F20" d="M277.168,466.633c-104.804,0-190.067-85.264-190.067-190.065
			c0-104.804,85.264-190.067,190.067-190.067c104.802,0,190.065,85.264,190.065,190.067
			C467.233,381.37,381.97,466.633,277.168,466.633z M277.168,89.286C173.9,89.286,89.886,173.3,89.886,276.568
			c0,103.266,84.015,187.28,187.282,187.28c103.267,0,187.28-84.015,187.28-187.28C464.448,173.3,380.435,89.286,277.168,89.286z"/>
		<path opacity="0.6" fill="#231F20" d="M277.168,425.754c-82.26,0-149.184-66.925-149.184-149.186
			c0-82.26,66.924-149.184,149.184-149.184c82.259,0,149.181,66.923,149.181,149.184
			C426.349,358.83,359.427,425.754,277.168,425.754z M277.168,130.102c-80.762,0-146.466,65.704-146.466,146.466
			c0,80.765,65.704,146.469,146.466,146.469c80.76,0,146.464-65.704,146.464-146.469
			C423.632,195.806,357.928,130.102,277.168,130.102z"/>
		<path opacity="0.6" fill="#231F20" d="M277.168,505.667c-126.326,0-229.102-102.773-229.102-229.099
			c0-126.327,102.775-229.101,229.102-229.101s229.101,102.774,229.101,229.101C506.269,402.893,403.494,505.667,277.168,505.667z
			 M277.168,50.824c-124.476,0-225.744,101.269-225.744,225.744c0,124.475,101.269,225.742,225.744,225.742
			s225.745-101.268,225.745-225.742C502.913,152.092,401.644,50.824,277.168,50.824z"/>
		<circle fill="#7B7C7E" cx="277.168" cy="276.567" r="43.145"/>
	</g>
	
		<line fill="none" stroke="#92278F" stroke-width="7" stroke-miterlimit="10" x1="394.832" y1="276.568" x2="535.943" y2="276.568"/>
</g>
<g id="_x33_">
</g>
</svg>
