<?xml version="1.0" encoding="utf-8"?>
<!-- Generator: Adobe Illustrator 17.0.0, SVG Export Plug-In . SVG Version: 6.00 Build 0)  -->
<!DOCTYPE svg PUBLIC "-//W3C//DTD SVG 1.1//EN" "http://www.w3.org/Graphics/SVG/1.1/DTD/svg11.dtd">
<svg version="1.1" id="Layer_1" xmlns="http://www.w3.org/2000/svg" xmlns:xlink="http://www.w3.org/1999/xlink" x="0px" y="0px"
	 width="290.181px" height="497.271px" viewBox="0 0 290.181 497.271" enable-background="new 0 0 290.181 497.271"
	 xml:space="preserve">
<g>
	<circle fill="#838182" cx="204.163" cy="110.964" r="85.997"/>
	<path fill="#121114" d="M79.58,447.568c-2.242-1.004-4.184-2.728-5.443-5.059c-3.039-5.626-0.942-12.651,4.686-15.693
		c21.804-11.809,83.333-53.007,80.094-86.266c-4.672-47.973-11.386-121.623-11.453-122.361c-0.183-1.981,0.151-3.974,0.966-5.789
		l14.579-32.515c2.615-5.836,9.469-8.445,15.305-5.829c5.837,2.617,8.446,9.469,5.829,15.306l-13.338,29.745
		c1.315,14.377,7.038,76.831,11.166,119.197c5.314,54.572-82.148,103.491-92.139,108.891
		C86.534,448.977,82.755,448.992,79.58,447.568z"/>
	<circle fill="#39373A" cx="204.163" cy="110.964" r="80.621"/>
	
		<rect x="193.73" y="62.072" transform="matrix(0.9125 0.4092 -0.4092 0.9125 64.1051 -74.3806)" fill="#717173" width="24.305" height="101.107"/>
	
		<rect x="166.332" y="155.837" transform="matrix(0.9125 0.4091 -0.4091 0.9125 86.6979 -57.8179)" fill="#CCCCCB" width="24.305" height="35.781"/>
	<circle fill="#CBCACB" cx="204.529" cy="110.148" r="34.447"/>
	<circle fill="#242225" cx="204.528" cy="110.148" r="27.32"/>
	<circle fill="#838182" cx="204.529" cy="110.148" r="18.707"/>
	<polygon fill="#525352" points="237.655,71.469 250.4,69.047 253.679,61.731 212.088,43.082 208.929,50.126 215.421,61.5 	"/>
	
		<rect x="219.265" y="7.154" transform="matrix(0.9125 0.4091 -0.4091 0.9125 34.259 -96.239)" fill="#CBCACB" width="45.582" height="49.59"/>
	<path fill="#2F3032" d="M265.876,140.259c-3.322,7.408-12.018,10.721-19.427,7.398c-7.406-3.321-10.721-12.018-7.398-19.426
		c3.323-7.408,12.02-10.719,19.426-7.399C265.888,124.155,269.197,132.852,265.876,140.259z"/>
	<circle fill="#717173" cx="252.464" cy="134.246" r="9.109"/>
	<polygon fill="#3C3A3F" points="69.731,459.131 57.994,440.151 77.585,428.03 89.324,447.014 	"/>
	
		<rect x="23.739" y="428.347" transform="matrix(0.5262 0.8504 -0.8504 0.5262 413.9182 186.9339)" fill="#121114" width="30.959" height="73.078"/>
	
		<rect x="71.228" y="435.773" transform="matrix(0.5262 0.8504 -0.8504 0.5262 411.69 136.4732)" fill="#D3D3D3" width="24.31" height="3.776"/>
	
		<rect x="22.509" y="456.704" transform="matrix(0.5262 0.8504 -0.8504 0.5262 408.1437 198.7939)" fill="#D3D3D3" width="6.361" height="17.859"/>
	
		<rect x="29.256" y="467.641" transform="matrix(0.5261 0.8504 -0.8504 0.5261 420.6472 198.247)" fill="#D3D3D3" width="6.361" height="17.859"/>
</g>
</svg>
